<?xml version="1.0" encoding="utf-8"?>
<!-- Generator: Adobe Illustrator 28.1.0, SVG Export Plug-In . SVG Version: 6.00 Build 0)  -->
<svg version="1.1"
	 id="svg8" xmlns:svg="http://www.w3.org/2000/svg" xmlns:dc="http://purl.org/dc/elements/1.1/" xmlns:cc="http://creativecommons.org/ns#" xmlns:rdf="http://www.w3.org/1999/02/22-rdf-syntax-ns#"
	 xmlns="http://www.w3.org/2000/svg" xmlns:xlink="http://www.w3.org/1999/xlink" x="0px" y="0px" viewBox="0 0 24 24"
	 style="enable-background:new 0 0 24 24;" xml:space="preserve">
<style type="text/css">
	.st0{fill:#FFFFFF;}
</style>
<g id="g2315" transform="translate(0,-290.65)">
	<path id="rect2299" class="st0" d="M5,294.6c-1.6,0-3,1.4-3,3v10c0,1.6,1.4,3,3,3h14c1.6,0,3-1.4,3-3v-10c0-1.6-1.4-3-3-3H5z
		 M5.6,296.6h12.8l-6.1,5.9c-0.2,0.2-0.4,0.2-0.6,0L5.6,296.6z M20,297.9v9.8c0,0.6-0.4,1-1,1H5c-0.6,0-1-0.4-1-1v-9.8l6.3,6.1
		c0.9,0.9,2.4,0.9,3.4,0L20,297.9z"/>
</g>
</svg>
