<?xml version="1.0" encoding="utf-8"?>
<!-- Generator: Adobe Illustrator 28.1.0, SVG Export Plug-In . SVG Version: 6.00 Build 0)  -->
<svg version="1.1" id="Layer_1" xmlns="http://www.w3.org/2000/svg" xmlns:xlink="http://www.w3.org/1999/xlink" x="0px" y="0px"
	 viewBox="0 0 24 24" style="enable-background:new 0 0 24 24;" xml:space="preserve">
<style type="text/css">
	.st0{fill:#FFFFFF;}
</style>
<g>
	<path class="st0" d="M22.4,4.1v0.6c0,0-0.8,0-1.1,0.5C21,5.7,21,7.6,21,8.6c0,1.1-0.2,3.9-1.9,5.2c-1.7,1.4-4,1.6-5.4,1.6
		c-0.2,0-0.4,0-0.6,0c0,2.8,0,5.3,0,5.3h-2.5c0,0,0-2.5,0-5.3c-0.2,0-0.3,0-0.6,0c-1.4,0-3.6-0.2-5.4-1.6C3.1,12.5,3,9.7,3,8.6
		c0-1.1,0-2.9-0.3-3.4C2.3,4.8,1.5,4.7,1.5,4.7V4.1c2.7,0,3.4,1.1,4,2.4c0.6,1.5,0.2,4.4,1.2,6.2c0.9,1.5,3.2,1.6,3.8,1.6
		c0.1,0,0.2,0,0.2,0c0-2.8,0-5.5,0-5.9c0-0.7,0-2-0.2-2.7c-0.4-1-2.3-1-2.7-1c0,0-0.1,0-0.1,0V4.3H12h4.2v0.4c0,0,0,0-0.1,0
		c-0.4,0-2.3,0-2.7,1c-0.2,0.6-0.2,2-0.2,2.7c0,0.3,0,3.1,0,5.9c0,0,0.1,0,0.2,0c0.6,0,2.9-0.1,3.8-1.6c1-1.7,0.6-4.7,1.2-6.2
		C19,5.2,19.7,4.1,22.4,4.1 M22.4,2.6c-2.6,0-3.9,0.9-4.7,2.1V4.3c0-0.8-0.7-1.5-1.5-1.5H12H7.7c-0.8,0-1.5,0.7-1.5,1.5v0.4
		C5.4,3.5,4.1,2.6,1.5,2.6C0.7,2.6,0,3.3,0,4.1v0.6c0,0.8,0.6,1.4,1.3,1.5c0.1,0.4,0.1,1.2,0.1,2.5c0,1.4,0.2,4.7,2.4,6.4
		c1.4,1.1,3.2,1.7,5.3,1.9v3.8c0,0.8,0.7,1.5,1.5,1.5h2.5c0.8,0,1.5-0.7,1.5-1.5v-3.8c2.1-0.1,4-0.8,5.3-1.9
		c2.2-1.7,2.4-5.1,2.4-6.4c0-1.3,0.1-2.1,0.1-2.5c0.8-0.1,1.3-0.7,1.3-1.5V4.1C23.9,3.3,23.3,2.6,22.4,2.6L22.4,2.6z M16.2,6.3
		c0.3,0,0.6-0.1,0.9-0.3c0,0,0,0,0,0c-0.4,0.9-0.4,1.9-0.5,2.9c-0.1,1.1-0.2,2.3-0.6,3c-0.2,0.3-0.7,0.6-1.2,0.7V8.4
		c0-1,0-1.7,0.1-2C15,6.4,15.6,6.2,16.2,6.3C16.2,6.3,16.2,6.3,16.2,6.3L16.2,6.3z M9.2,12.6c-0.5-0.1-1-0.4-1.2-0.7
		c-0.4-0.7-0.5-1.9-0.6-3C7.3,7.9,7.3,6.8,6.9,6c0.2,0.2,0.5,0.3,0.8,0.3c0,0,0,0,0,0c0,0,0,0,0,0c0.6,0,1.1,0.1,1.4,0.2
		c0.1,0.3,0.1,1,0.1,2V12.6L9.2,12.6z"/>
</g>
</svg>
