<?xml version="1.0" encoding="UTF-8"?>
<svg id="Layer_1" xmlns="http://www.w3.org/2000/svg" version="1.1" viewBox="0 0 110.34 32.7">
  <!-- Generator: Adobe Illustrator 29.5.1, SVG Export Plug-In . SVG Version: 2.1.0 Build 141)  -->
  <defs>
    <style>
      .st0, .st1 {
        fill: #f1e8e2;
      }

      .st1 {
        font-family: MADEMirage-Medium, 'MADE Mirage';
        font-size: 13.5px;
        font-weight: 500;
      }
    </style>
  </defs>
  <text class="st1" transform="translate(19.68 21.81)"><tspan x="0" y="0" xml:space="preserve">   Alice Cornélio</tspan></text>
  <path class="st0" d="M18.83,4.22s-.1,0-.28,0c-.74,0-2.74.12-3.99,1.38-.55.55-.88,1.24-1.08,1.91v-2c.01-.59-.04-2.78-1.38-4.12C10.54-.18,7.82,0,7.82,0c0,0-.19,2.72,1.37,4.27,1.11,1.11,2.81,1.33,3.69,1.37v9.56c.06,1.6-.56,3.16-1.69,4.3-1.77,1.77-4.66,1.77-6.44,0-.46-.46-.8-1.05-.95-1.69-.28-1.24.07-2.46.91-3.33.39-.4.9-.7,1.45-.81.91-.18,1.81.07,2.46.67.37.33.63.79.71,1.28.11.71-.11,1.41-.61,1.9-.64.64-1.75.64-2.39,0-.2.28-.12.67.18.84.3.17.63.25,1.01.25.56,0,1.13-.21,1.54-.59.76-.7,1.07-1.75.79-2.8-.1-.4-.31-.76-.58-1.07-1.31-1.46-3.57-1.51-4.94-.14-1.63,1.63-1.63,4.28,0,5.91,1.17,1.17,2.81,1.71,4.5,1.44,1.06-.17,2.02-.68,2.78-1.44,1.25-1.25,1.92-2.98,1.86-4.73v-5.33c.74,0,2.74-.13,3.99-1.37,1.56-1.56,1.37-4.27,1.37-4.27Z"/>
  <path class="st0" d="M21.93,23.29s-1.99-1.33-2.29-3.92c-.03-.24-.05-.51-.08-.8-.19-2.02-.7-5.75-2.83-8.11-.72.32-1.46.49-2.08.57,2.23,2.17,2.67,5.53,2.86,7.56.03.29.05.57.08.82.26,2.22,1.6,3.58,2.23,4.1l-1.72,1.38-1.23,4.89c-2.77,1.15-6.99-1.73-6.99-1.73l-.13,4.01-4.14.05-.87-6.02-.02-.11-.15-.13C-.92,21.18.48,16.41,1.81,13.98c1.11-2.03,4.74-5.42,9.89-5.09v-.57c-5.73-.32-9.23,3.22-10.41,5.38-1.41,2.58-2.91,7.65,2.88,12.59l.93,6.42h6.19l.09-2.17c1.17.67,4.01,1.92,6.99.35.09-.05.15-.12.18-.22l1.53-5.38,2.19-1.76-.34-.23Z"/>
  <g>
    <path class="st0" d="M32.22,27.77c0,1.12-.81,1.8-2.16,1.8h-1.28v1.57h-.74v-5.17h2.02c1.34,0,2.16.68,2.16,1.8ZM31.48,27.77c0-.74-.5-1.16-1.44-1.16h-1.26v2.32h1.26c.95,0,1.44-.42,1.44-1.16Z"/>
    <path class="st0" d="M34.38,30.55l.27-.58c.38.35,1.04.6,1.71.6.89,0,1.28-.35,1.28-.8,0-1.26-3.13-.46-3.13-2.39,0-.8.62-1.48,1.98-1.48.61,0,1.23.16,1.66.46l-.24.59c-.45-.29-.96-.42-1.42-.42-.88,0-1.25.37-1.25.82,0,1.26,3.13.47,3.13,2.37,0,.79-.63,1.47-2,1.47-.79,0-1.57-.27-1.98-.65Z"/>
    <path class="st0" d="M40.91,25.97h.74v5.17h-.74v-5.17Z"/>
    <path class="st0" d="M44.26,28.55c0-1.53,1.17-2.64,2.74-2.64.8,0,1.49.27,1.96.8l-.48.47c-.4-.42-.89-.61-1.46-.61-1.17,0-2.03.84-2.03,1.99s.86,1.99,2.03,1.99c.57,0,1.06-.2,1.46-.62l.48.47c-.47.53-1.17.81-1.97.81-1.57,0-2.73-1.12-2.73-2.64Z"/>
    <path class="st0" d="M50.96,28.55c0-1.51,1.17-2.64,2.75-2.64s2.74,1.12,2.74,2.64-1.17,2.64-2.74,2.64-2.75-1.13-2.75-2.64ZM55.72,28.55c0-1.14-.86-1.99-2-1.99s-2.02.84-2.02,1.99.86,1.99,2.02,1.99,2-.84,2-1.99ZM54.17,24.59h.9l-1.24.96h-.66l1-.96Z"/>
    <path class="st0" d="M59.06,25.97h.74v4.53h2.8v.64h-3.54v-5.17Z"/>
    <path class="st0" d="M64.4,28.55c0-1.51,1.17-2.64,2.75-2.64s2.74,1.12,2.74,2.64-1.17,2.64-2.74,2.64-2.75-1.13-2.75-2.64ZM69.16,28.55c0-1.14-.86-1.99-2-1.99s-2.02.84-2.02,1.99.86,1.99,2.02,1.99,2-.84,2-1.99Z"/>
    <path class="st0" d="M76.08,28.52h.71v2.02c-.52.44-1.23.66-1.96.66-1.59,0-2.75-1.12-2.75-2.64s1.17-2.64,2.77-2.64c.82,0,1.51.27,1.99.8l-.46.46c-.43-.41-.92-.6-1.5-.6-1.2,0-2.06.83-2.06,1.99s.86,1.99,2.05,1.99c.44,0,.84-.1,1.21-.33v-1.68Z"/>
    <path class="st0" d="M82.97,29.84h-2.75l-.57,1.29h-.76l2.34-5.17h.73l2.35,5.17h-.78l-.57-1.29ZM82.71,29.25l-1.12-2.53-1.12,2.53h2.23Z"/>
  </g>
</svg>