<?xml version="1.0" encoding="utf-8"?>
<!-- Generator: Adobe Illustrator 28.2.0, SVG Export Plug-In . SVG Version: 6.00 Build 0)  -->
<svg version="1.1" id="Layer_1" xmlns="http://www.w3.org/2000/svg" xmlns:xlink="http://www.w3.org/1999/xlink" x="0px" y="0px"
	 viewBox="0 0 112 79" style="enable-background:new 0 0 112 79;" xml:space="preserve">
<style type="text/css">
	.st0{clip-path:url(#SVGID_00000041274910914248043450000013786455055440237995_);}
	.st1{fill:#2C424C;}
	.st2{fill:#C35349;}
</style>
<g>
	<defs>
		<rect id="SVGID_1_" y="0" width="112" height="79"/>
	</defs>
	<clipPath id="SVGID_00000056389850224829117140000013325715440970662334_">
		<use xlink:href="#SVGID_1_"  style="overflow:visible;"/>
	</clipPath>
	<g style="clip-path:url(#SVGID_00000056389850224829117140000013325715440970662334_);">
		<path class="st1" d="M54.6,59.3v0.5H49v-0.5c0.9-0.1,1.3-0.7,1-1.6l-1.4-3.4h-6.9l-1.3,3.5c-0.3,0.9,0,1.4,1,1.5v0.5h-3.7v-0.5
			c0.9-0.1,1.4-0.5,1.7-1.4l4.9-13.2c0.3-0.8,0.1-1.4-0.7-1.5v-0.5h2.9l6.4,15.1C53.2,58.8,53.6,59.3,54.6,59.3L54.6,59.3z
			 M48.3,53.4L45,45.5l-2.9,7.9H48.3z"/>
		<path class="st1" d="M59.9,59.3v0.5H55v-0.5c0.9-0.1,1.2-0.5,1.2-1.5V44.7c0-1-0.2-1.4-1.2-1.5v-0.5l3.3-0.9h0.4v16
			C58.8,58.8,59,59.3,59.9,59.3z"/>
		<path class="st1" d="M66,59.4v0.5h-4.9v-0.5c0.9-0.1,1.2-0.5,1.2-1.5v-7c0-1-0.2-1.4-1.2-1.5v-0.5l3.3-0.9h0.4v9.8
			C64.9,58.8,65.1,59.3,66,59.4L66,59.4z M61.7,44.7c0-1,0.8-1.6,1.7-1.6c0.9,0,1.7,0.6,1.7,1.6s-0.8,1.6-1.7,1.6
			C62.5,46.3,61.7,45.8,61.7,44.7z"/>
		<path class="st1" d="M77.9,57.3c-0.8,1.6-2.6,2.8-4.7,2.8c-3.3,0-6-2.4-6-6.2s2.8-5.8,6-5.8c2.1,0,3.6,0.7,4.4,1.9
			c0.4,0.7,0.4,1.8-0.6,2.2c-0.8,0.3-1.7-0.2-1.7-1.6c0.1-1.2-0.8-2.1-2.2-1.9c-1.8,0.2-3.5,2.1-3.4,5.3c0.3,5.4,5.7,5.9,7.9,3.2
			L77.9,57.3L77.9,57.3z"/>
		<path class="st1" d="M90,53.7h-8.4c0,0.1,0,0.1,0,0.2c0.3,5.4,5.8,5.9,7.9,3.2l0.3,0.3c-0.8,1.6-2.7,2.8-4.8,2.8
			c-3.2,0-6-2.4-6-6.2s2.5-5.8,5.8-5.8c3.5,0,5.2,2.5,5.2,5.5V53.7L90,53.7z M81.6,52.8h6c0.1-2.2-0.8-4.2-2.9-4.2
			C83.1,48.6,81.8,50.2,81.6,52.8z"/>
		<path class="st1" d="M36.4,73.8l-0.5,3.4c-1.5,1.1-3.1,1.8-5.9,1.7c-5.1-0.2-9.2-3.5-9.2-8.8c0-5.3,3.9-8.8,9.1-8.8
			c2.2,0,4.5,0.7,6.1,1.7v3.5h-0.5c-0.7-3.1-2.9-4.5-5.6-4.5c-3.8,0-6.2,3.4-6.2,8.1s2.4,7.9,6.2,8.2c3,0.2,5.1-1.3,6.1-4.5H36.4z"
			/>
		<path class="st1" d="M49.8,72.9c0,3.8-2.9,6.1-6.1,6.1c-3.3,0-6.2-2.2-6.2-6.1s2.9-6,6.2-6C46.9,66.9,49.8,69.1,49.8,72.9z
			 M47.1,72.9c0-3.2-1.3-5.3-3.5-5.3s-3.5,2.2-3.5,5.3s1.3,5.3,3.5,5.3S47.1,76.1,47.1,72.9z"/>
		<path class="st1" d="M59.9,70.2c-0.8,0.3-1.7,0-1.8-1.2C58,68,57.5,67.9,56.8,68c-1,0.2-2,1.5-2,3.3v5.5c0,1,0.2,1.4,1.2,1.4v0.5
			h-4.9v-0.5c0.9-0.1,1.1-0.5,1.1-1.4v-7c0-0.9-0.2-1.4-1.1-1.5v-0.5l3.3-0.9h0.4v2.1c0.7-1.3,1.8-2.1,3.2-2.1
			c1.2,0,2.3,0.5,2.6,1.5C60.8,69,60.6,69.9,59.9,70.2z"/>
		<path class="st1" d="M74.9,78.2v0.5H70v-0.5c0.9-0.1,1.2-0.5,1.2-1.5v-5.5c0-2-0.9-3.4-2.8-3.4c-1.7,0-2.9,1.4-2.9,3.2v5.7
			c0,1,0.2,1.4,1.2,1.5v0.5h-4.9v-0.5c0.9-0.1,1.2-0.5,1.2-1.5v-7c0-1-0.2-1.4-1.2-1.5v-0.5l3.3-0.9h0.4v1.8
			c0.9-1.2,2.2-1.8,3.8-1.8c3,0,4.5,2,4.5,4.6v5.2C73.7,77.6,74,78.1,74.9,78.2L74.9,78.2z"/>
		<path class="st1" d="M86.4,72.5H78c0,0.1,0,0.2,0,0.2c0.3,5.4,5.8,5.9,7.9,3.2l0.3,0.3c-0.8,1.6-2.7,2.8-4.8,2.8
			c-3.2,0-6-2.4-6-6.2c0-3.8,2.5-5.8,5.8-5.8c3.6,0,5.2,2.5,5.2,5.5V72.5L86.4,72.5z M78.1,71.6h6c0.1-2.2-0.8-4.2-2.9-4.2
			C79.5,67.4,78.2,69,78.1,71.6z M83,64c-1.2,0.5-2.2,0.9-3.1,1.1c-0.3,0.1-0.5,0.1-0.6-0.1c-0.1-0.2,0-0.4,0.2-0.6
			c0.7-0.6,1.6-1.2,2.6-2c0.6-0.4,1.1-0.2,1.4,0.3C83.8,63.2,83.7,63.7,83,64L83,64z"/>
		<path class="st1" d="M92.5,78.2v0.5h-4.9v-0.5c0.9-0.1,1.2-0.5,1.2-1.5V63.5c0-1-0.2-1.4-1.2-1.4v-0.5l3.3-0.9h0.4v16
			C91.3,77.6,91.5,78.1,92.5,78.2z"/>
		<path class="st1" d="M98.6,78.2v0.5h-4.9v-0.5c0.9-0.1,1.1-0.5,1.1-1.5v-7c0-1-0.2-1.4-1.1-1.5v-0.5l3.3-0.9h0.4v9.8
			C97.4,77.6,97.7,78.1,98.6,78.2L98.6,78.2z M94.2,63.5c0-1,0.8-1.6,1.7-1.6s1.7,0.6,1.7,1.6c0,1.1-0.8,1.6-1.7,1.6
			S94.2,64.6,94.2,63.5z"/>
		<path class="st1" d="M111.9,72.9c0,3.8-2.9,6.1-6.2,6.1c-3.3,0-6.2-2.2-6.2-6.1s2.9-6,6.2-6C109,66.9,111.9,69.1,111.9,72.9z
			 M109.2,72.9c0-3.2-1.3-5.3-3.5-5.3c-2.2,0-3.5,2.2-3.5,5.3s1.3,5.3,3.5,5.3C107.9,78.2,109.2,76.1,109.2,72.9z"/>
		<path class="st1" d="M34,7.6c0,0-0.2,0-0.5,0c-1.3,0-4.9,0.2-7.2,2.5c-1,1-1.6,2.2-1.9,3.4V9.9c0-1.1-0.1-5-2.5-7.4
			C19-0.3,14.1,0,14.1,0s-0.3,4.9,2.5,7.7c2,2,5.1,2.4,6.7,2.5v17.3c0.1,2.9-1,5.7-3,7.8c-3.2,3.2-8.4,3.2-11.6,0
			c-0.8-0.8-1.5-1.9-1.7-3c-0.5-2.2,0.1-4.4,1.6-6c0.7-0.7,1.6-1.3,2.6-1.5c1.6-0.3,3.3,0.1,4.4,1.2c0.7,0.6,1.1,1.4,1.3,2.3
			c0.2,1.3-0.2,2.5-1.1,3.4c-1.2,1.2-3.2,1.2-4.3,0c-0.4,0.5-0.2,1.2,0.3,1.5c0.5,0.3,1.1,0.5,1.8,0.5c1,0,2-0.4,2.8-1.1
			c1.4-1.3,1.9-3.2,1.4-5.1c-0.2-0.7-0.6-1.4-1-1.9c-2.4-2.6-6.4-2.7-8.9-0.2C4.9,28.2,4.9,33,7.8,36c2.1,2.1,5.1,3.1,8.1,2.6
			c1.9-0.3,3.6-1.2,5-2.6c2.2-2.2,3.5-5.4,3.4-8.5v-9.6c1.3,0,4.9-0.2,7.2-2.5C34.3,12.5,34,7.6,34,7.6L34,7.6z"/>
		<path class="st2" d="M39.6,42c0,0-3.6-2.4-4.1-7.1c0-0.4-0.1-0.9-0.1-1.5C35,29.9,34,23.1,30.2,18.9c-1.3,0.6-2.6,0.9-3.8,1
			c4,3.9,4.8,10,5.2,13.6c0,0.5,0.1,1,0.1,1.5c0.5,4,2.9,6.5,4,7.4l-3.1,2.5l-2.2,8.8c-5,2.1-12.6-3.1-12.6-3.1l-0.2,7.2l-7.5,0.1
			L8.6,47.1l0-0.2l-0.3-0.2c-9.9-8.4-7.4-17-5-21.4c2-3.7,8.6-9.8,17.8-9.2v-1c-10.3-0.6-16.7,5.8-18.8,9.7
			c-2.5,4.7-5.3,13.8,5.2,22.7L9.2,59h11.2l0.2-3.9c2.1,1.2,7.2,3.5,12.6,0.6c0.2-0.1,0.3-0.2,0.3-0.4l2.8-9.7l4-3.2L39.6,42
			L39.6,42z"/>
	</g>
</g>
</svg>
